<svg xmlns="http://www.w3.org/2000/svg" viewBox="0 0 1920 1080"><g transform="
          rotate(264 960 540) 
          translate(-837.6646928321338 -471.18638971807536)
          scale(1.8725673883668061)
        "><rect width="1920" height="1080" fill="rgb(72, 49, 212)"></rect><g transform="translate(0, 0)"><path fill="rgb(204, 243, 129)" fill-opacity="1" d="M0,1058.83L53.333,1050.225C106.667,1041.621,213.333,1024.412,320,1021.744C426.667,1019.076,533.333,1030.95,640,1032.285C746.667,1033.62,853.333,1024.417,960,909.549C1066.667,794.682,1173.333,574.15,1280,555.525C1386.667,536.9,1493.333,720.181,1600,664.008C1706.667,607.835,1813.333,312.206,1866.667,164.392L1920,16.578L1920,1080L1866.667,1080C1813.333,1080,1706.667,1080,1600,1080C1493.333,1080,1386.667,1080,1280,1080C1173.333,1080,1066.667,1080,960,1080C853.333,1080,746.667,1080,640,1080C533.333,1080,426.667,1080,320,1080C213.333,1080,106.667,1080,53.333,1080L0,1080Z"></path></g></g></svg>