<svg xmlns="http://www.w3.org/2000/svg" version="1.1" xmlns:xlink="http://www.w3.org/1999/xlink" xmlns:svgjs="http://svgjs.dev/svgjs" viewBox="0 0 800 800"><defs><linearGradient x1="50%" y1="0%" x2="50%" y2="100%" id="ssscribble-grad"><stop stop-color="hsl(206, 75%, 49%)" stop-opacity="1" offset="0%"></stop><stop stop-color="hsl(331, 90%, 56%)" stop-opacity="1" offset="100%"></stop></linearGradient></defs><g fill="none" stroke-width="1.25" stroke="url(#ssscribble-grad)" stroke-linecap="round" stroke-dasharray="150"><path d="M958.54 797.89C997.31 825.23 935.4 853.11 805.46 862.55 633.29 850.15 461.95 785.01 322.79 654.67 207.31 503.76 131.78 332.32 85.93 208.46 53.51 200.42 28.52 325.29 1.19 558.38 -39.7 884.33 -53.29 779.72 42.77 502.81 146.11 323.44 288.45 196.33 440.58 119.93 550.48 63.75 601.31 29.15 562.54 1.81 433.31 -25.52 261.1 -43 97.68 -34.2 -43.03 -5.18 -121.05 79.25 -137.97 222.79 -111.48 372.98 -51.93 525.76 13.11 612.03 88.79 576.08 147.51 411.65 174.85 162.38 202.19 -70.7 195.55 -184.49 167.25 -156.41 149.58 -12.51 132.69 187.91 142.04 374.65 194.78 540.83 301.8 648.63 462.56 708.41 646.02 746.35 829.31 770.55 958.54 797.89Q958.54 797.89 958.54 797.89" opacity="0.20"></path><path d="M909.08 589.3C947.57 609.8 927.2 593.61 861.73 543.19 761.4 490.05 645.29 403.22 534.53 298.44 421.95 214.62 328.58 150.51 260.63 138.59 196.5 196.86 153.3 326.83 132.79 508.89 112.29 700.21 116.43 845.92 145.03 919.66 177.44 925.9 238.81 867.39 324.52 774.79 408.41 654.81 502.77 539.89 588.07 450.84 638.51 362.01 650.57 304.11 612.08 283.6 522.22 263.1 404.66 281.94 284.24 335.23 161.57 388.75 64.83 471.67 2.15 564.78 -42.49 630.51 -57.8 667.27 -52.69 646 -39.95 557.23 -19.87 403.21 0.62 211.89 21.13 29.83 40.12 -91.81 62.91 -135.06 93.33 -108.12 140.64 -22.26 212.16 88.43 301.72 220.08 420.2 338.91 557.9 427.58 693.35 513.53 819.22 568.79 909.08 589.3Q909.08 589.3 909.08 589.3" opacity="0.27"></path><path d="M859.77 146.8C898.28 174.13 835.44 126.88 734.07 77.57 603.88 98.6 500.53 226.38 473.2 459.45 445.86 708.72 499.71 851.57 594.06 869.99 659.61 816.74 700.28 736.51 661.77 709.18 532.73 681.84 375.64 712.57 261.46 729.99 154.76 675.73 112.19 510.72 139.53 261.45 166.87 28.38 258.93 -77.23 401.47 -62.42 551.48 22.7 730.73 119.46 859.77 146.8Q859.77 146.8 859.77 146.8" opacity="0.64"></path></g></svg>
