<svg width="106" height="27" viewBox="0 0 106 27" fill="none" xmlns="http://www.w3.org/2000/svg">
<path d="M2.888 26.324C2.192 26.324 1.676 26.216 1.34 26C1.028 25.76 0.824 25.448 0.728 25.064C0.656 24.68 0.62 24.272 0.62 23.84V3.608C0.62 3.176 0.668 2.78 0.764 2.42C0.86 2.036 1.064 1.736 1.376 1.52C1.712 1.28 2.228 1.16 2.924 1.16H12.284C13.7 1.16 14.936 1.484 15.992 2.132C17.072 2.78 17.912 3.656 18.512 4.76C19.136 5.84 19.448 7.016 19.448 8.288C19.448 8.864 19.376 9.428 19.232 9.98C19.112 10.508 18.92 11.012 18.656 11.492C18.392 11.972 18.068 12.404 17.684 12.788C18.212 13.22 18.668 13.76 19.052 14.408C19.46 15.032 19.76 15.704 19.952 16.424C20.168 17.12 20.276 17.852 20.276 18.62C20.252 19.724 20.036 20.744 19.628 21.68C19.244 22.616 18.704 23.432 18.008 24.128C17.312 24.824 16.508 25.364 15.596 25.748C14.684 26.132 13.7 26.324 12.644 26.324H2.888ZM5.228 21.788H12.284C12.908 21.788 13.472 21.68 13.976 21.464C14.504 21.224 14.924 20.84 15.236 20.312C15.548 19.784 15.704 19.088 15.704 18.224C15.704 17.576 15.62 17.06 15.452 16.676C15.284 16.268 15.056 15.956 14.768 15.74C14.48 15.5 14.156 15.344 13.796 15.272C13.46 15.176 13.124 15.116 12.788 15.092C12.452 15.068 12.128 15.056 11.816 15.056H10.304C9.632 15.056 9.14 14.9 8.828 14.588C8.54 14.276 8.396 13.76 8.396 13.04C8.396 12.344 8.552 11.852 8.864 11.564C9.2 11.276 9.716 11.132 10.412 11.132H11.888C12.2 11.132 12.524 11.12 12.86 11.096C13.196 11.072 13.52 10.988 13.832 10.844C14.144 10.7 14.396 10.46 14.588 10.124C14.78 9.764 14.876 9.26 14.876 8.612C14.876 7.604 14.612 6.872 14.084 6.416C13.556 5.96 12.656 5.732 11.384 5.732H5.228V21.788Z" fill="#5A67D8"/>
<path d="M38.0592 26.648C36.3312 26.648 34.7112 26.324 33.1992 25.676C31.6872 25.028 30.3552 24.128 29.2032 22.976C28.0512 21.8 27.1512 20.444 26.5032 18.908C25.8552 17.372 25.5312 15.728 25.5312 13.976C25.5312 12.176 25.8432 10.496 26.4672 8.936C27.1152 7.352 27.9912 5.972 29.0952 4.796C30.2232 3.596 31.5192 2.66 32.9832 1.988C34.4712 1.316 36.0552 0.979998 37.7352 0.979998C39.4632 0.979998 41.0832 1.304 42.5952 1.952C44.1072 2.6 45.4272 3.512 46.5552 4.688C47.6832 5.864 48.5712 7.232 49.2192 8.792C49.8672 10.352 50.1912 12.032 50.1912 13.832C50.1912 15.584 49.8792 17.24 49.2552 18.8C48.6312 20.336 47.7552 21.704 46.6272 22.904C45.4992 24.08 44.2032 25.004 42.7392 25.676C41.2752 26.324 39.7152 26.648 38.0592 26.648ZM37.8432 22.04C38.9232 22.04 39.9312 21.836 40.8672 21.428C41.8032 20.996 42.6192 20.408 43.3152 19.664C44.0352 18.92 44.5872 18.056 44.9712 17.072C45.3792 16.064 45.5832 14.984 45.5832 13.832C45.5832 12.704 45.3792 11.648 44.9712 10.664C44.5632 9.656 43.9992 8.78 43.2792 8.036C42.5832 7.268 41.7672 6.68 40.8312 6.272C39.9192 5.84 38.9352 5.624 37.8792 5.624C36.8232 5.624 35.8272 5.84 34.8912 6.272C33.9552 6.68 33.1272 7.268 32.4072 8.036C31.7112 8.78 31.1592 9.656 30.7512 10.664C30.3672 11.648 30.1752 12.704 30.1752 13.832C30.1752 14.96 30.3792 16.028 30.7872 17.036C31.1952 18.02 31.7472 18.884 32.4432 19.628C33.1392 20.372 33.9432 20.96 34.8552 21.392C35.7912 21.824 36.7872 22.04 37.8432 22.04ZM58.2034 26.324C57.5314 26.324 57.0274 26.216 56.6914 26C56.3794 25.784 56.1754 25.508 56.0794 25.172C56.0074 24.812 55.9714 24.416 55.9714 23.984V3.392C55.9714 3.008 56.0194 2.648 56.1154 2.312C56.2114 1.976 56.4274 1.712 56.7634 1.52C57.0994 1.304 57.6274 1.196 58.3474 1.196C59.0914 1.196 59.6074 1.28 59.8954 1.448C60.1834 1.616 60.4474 1.856 60.6874 2.168L72.3514 18.404V3.392C72.3514 3.008 72.3994 2.648 72.4954 2.312C72.6154 1.976 72.8314 1.712 73.1434 1.52C73.4794 1.304 73.9954 1.196 74.6914 1.196C75.4114 1.196 75.9274 1.304 76.2394 1.52C76.5514 1.736 76.7554 2.024 76.8514 2.384C76.9474 2.744 76.9954 3.128 76.9954 3.536V24.02C76.9954 24.428 76.9354 24.812 76.8154 25.172C76.7194 25.508 76.5034 25.784 76.1674 26C75.8314 26.216 75.3034 26.324 74.5834 26.324C74.0074 26.324 73.5634 26.276 73.2514 26.18C72.9394 26.084 72.6634 25.868 72.4234 25.532L60.5434 9.296V24.02C60.5434 24.428 60.4954 24.812 60.3994 25.172C60.3274 25.508 60.1234 25.784 59.7874 26C59.4514 26.216 58.9234 26.324 58.2034 26.324ZM94.8292 26.576C93.1252 26.576 91.6132 26.264 90.2932 25.64C88.9972 24.992 87.8932 24.128 86.9812 23.048C86.0932 21.944 85.4212 20.684 84.9652 19.268C84.5092 17.852 84.2812 16.364 84.2812 14.804V3.5C84.2812 3.068 84.3172 2.684 84.3892 2.348C84.4852 1.988 84.6892 1.7 85.0012 1.484C85.3372 1.268 85.8772 1.16 86.6212 1.16C87.3652 1.16 87.8932 1.268 88.2052 1.484C88.5412 1.7 88.7452 1.988 88.8172 2.348C88.9132 2.684 88.9612 3.08 88.9612 3.536V14.804C88.9612 16.076 89.1652 17.252 89.5732 18.332C90.0052 19.412 90.6532 20.288 91.5172 20.96C92.4052 21.608 93.5452 21.932 94.9372 21.932C96.1612 21.932 97.2172 21.644 98.1052 21.068C98.9932 20.492 99.6772 19.664 100.157 18.584C100.637 17.504 100.877 16.232 100.877 14.768V3.284C100.877 2.9 100.925 2.552 101.021 2.24C101.117 1.928 101.321 1.676 101.633 1.484C101.969 1.268 102.497 1.16 103.217 1.16C103.937 1.16 104.453 1.268 104.765 1.484C105.101 1.7 105.305 1.988 105.377 2.348C105.449 2.708 105.485 3.104 105.485 3.536V14.876C105.485 16.46 105.257 17.948 104.801 19.34C104.345 20.732 103.661 21.98 102.749 23.084C101.837 24.164 100.721 25.016 99.4012 25.64C98.0812 26.264 96.5572 26.576 94.8292 26.576Z" fill="#1D2430"/>
</svg>
