<svg id="Vrstva_1" data-name="Vrstva 1" xmlns="http://www.w3.org/2000/svg" width="141.7" height="55.87" viewBox="0 0 141.7 55.87">
  <title>Kreslicí plátno 2</title>
  <g>
    <path d="M33.26,19.94a4.7,4.7,0,0,0-2.52.72,4.8,4.8,0,0,0-1.8,2.24V20.38H23.83V40H29.3v-14a1.22,1.22,0,0,1,.51-1.08,1.46,1.46,0,0,1,1.08-.43,1.3,1.3,0,0,1,1.08.5A1.82,1.82,0,0,1,32.33,26V40h5.54V23.83A3.54,3.54,0,0,0,36.5,21,4.88,4.88,0,0,0,33.26,19.94Z" fill="#0080c9"/>
    <path d="M49.68,34.56a1.75,1.75,0,0,1-.43,1.15,1.63,1.63,0,0,1-1.15.43,1.29,1.29,0,0,1-1-.43,1.53,1.53,0,0,1-.36-1.15V20.38H41.11V36.79a3.63,3.63,0,0,0,1.23,2.81,4.7,4.7,0,0,0,3.31,1.08c1.94,0,3.38-1,4.46-3.1V40h5.11V20.38H49.68Z" fill="#0080c9"/>
    <rect x="116.71" y="35.71" width="4.18" height="4.25" fill="#0080c9"/>
    <polygon points="6.19 13.68 0 13.68 0 39.96 13.68 39.96 13.68 34.78 6.19 34.78 6.19 13.68" fill="#0080c9"/>
    <rect x="15.19" y="20.38" width="5.54" height="19.58" fill="#0080c9"/>
    <rect x="15.19" y="13.75" width="5.54" height="4.75" fill="#0080c9"/>
    <path d="M128.16,35.86a2.11,2.11,0,0,1-.36,1.29,1.17,1.17,0,0,1-.94.43,1.48,1.48,0,0,1-.93-.36,1.45,1.45,0,0,1-.36-1.08V30a1.46,1.46,0,0,1,1.65-1.58c.22,0,.36.14.51.36a2.53,2.53,0,0,1,.21,1.22l.08,1.23h3.74v-.79c0-1.88-.5-3.17-1.58-3.89a6,6,0,0,0-3.75-.94,4.73,4.73,0,0,0-3.67,1.3A4.26,4.26,0,0,0,121.68,30v6a4.46,4.46,0,0,0,1.3,3.46,5.37,5.37,0,0,0,3.45,1,6,6,0,0,0,4.11-1.15c.93-.79,1.36-2.23,1.36-4.17v-.8h-3.74Z" fill="#0080c9"/>
    <path d="M78.12,23.4A3,3,0,0,0,78.91,21a2.22,2.22,0,0,0-1.08-2.23c-.21-.07-.43-.07-.72-.14A13.87,13.87,0,0,0,75,18.43v5.62a8.7,8.7,0,0,0,2.16-.22A1.61,1.61,0,0,0,78.12,23.4Z" fill="#0080c9"/>
    <polygon points="141.7 26.06 132.98 26.06 132.98 29.16 137.23 29.16 132.7 37.22 132.7 39.96 141.7 39.96 141.7 36.86 137.16 36.86 141.7 29.16 141.7 26.06" fill="#0080c9"/>
    <path d="M94.54,23.83h-.08c-1.15.07-1.72.72-1.72,2v9a1.78,1.78,0,0,0,.57,1.44,2.45,2.45,0,0,0,2.31,0,1.69,1.69,0,0,0,.57-1.44v-9a2.13,2.13,0,0,0-.5-1.51A1.35,1.35,0,0,0,94.54,23.83Z" fill="#0080c9"/>
    <path d="M114.77,36.58l6.77-24.48L77.76,0,73.94,13.68h3.17a10.13,10.13,0,0,1,5.55,1.37,5.75,5.75,0,0,1,2.44,5.11,7.25,7.25,0,0,1-.93,4,7.87,7.87,0,0,1-2.09,1.95,6.61,6.61,0,0,1,2.74,2.37,8.51,8.51,0,0,1,.64,3.82c0,2.52-.57,4.39-1.87,5.61-1.29,1.37-3.38,2-6.12,2H72.22l-3.46-7.42v-.07l-1.08-2.23,4.46-9.86H66.53l-1.8,5.54-1.66-5.54H57.53l4.39,9.86L57.31,40h5.76l1.8-5.54L66.67,40l-1.08,3.82,43.78,12.09L113.83,40h-3.09L109,34.34,107.14,40h-5.76l4.6-9.79-4.39-9.87h5.55l1.65,5.62,1.8-5.62h5.69l-4.46,9.87Zm-13-10.88v9.15A5,5,0,0,1,99.79,39a7.85,7.85,0,0,1-5.33,1.66A8.19,8.19,0,0,1,88.85,39a4.94,4.94,0,0,1-1.73-3.89V25.85a5.55,5.55,0,0,1,1.8-4.25,7.7,7.7,0,0,1,5.54-1.8h.08A7.75,7.75,0,0,1,100,21.6,5.5,5.5,0,0,1,101.74,25.7Z" fill="#0080c9"/>
    <path d="M75,35.28h1a6,6,0,0,0,1.15-.07,3.29,3.29,0,0,0,1.73-.79,4.5,4.5,0,0,0,.5-2.38,3.18,3.18,0,0,0-.93-2.66,3.1,3.1,0,0,0-1.3-.44A9.75,9.75,0,0,0,75,28.8Z" fill="#0080c9"/>
  </g>
</svg>
