<svg width="191" height="40" viewBox="0 0 191 40" fill="none" xmlns="http://www.w3.org/2000/svg">
<path d="M13.3529 10.634H4.875L9.89111 16.6904L15.4018 13.2397L13.3529 10.634Z" fill="#D62F2F"/>
<path d="M16.5318 14.5776L11.0211 18.1692L13.9884 21.6903L18.3687 16.8312L16.5318 14.5776Z" fill="#D62F2F"/>
<path d="M20.8414 19.93L19.5697 18.3103L15.1188 23.1695L19.1458 27.9582L22.1837 25.9864L20.8414 19.93Z" fill="#D62F2F"/>
<path d="M40.5527 4.78893L34.6182 13.3101L34.053 8.94386L29.1782 4.78893L23.6675 6.40865L22.2545 8.09879L24.2327 10.5636L24.9392 9.22555L25.999 9.29597L26.7055 10.2819L24.8686 13.3101L17.8036 4.78893H0L3.32052 8.80301H14.4125L22.3252 18.6622L24.1621 26.9016L20.347 29.3664L23.5969 33.2396L25.2925 28.803H27.9771C27.9771 28.803 28.7543 31.4087 29.0369 32.465C29.1075 32.7467 29.1782 32.8875 29.1782 32.8875L30.3086 28.803H32.9932L34.7595 33.2396L38.0094 29.3664L34.1943 26.8312L36.0312 18.5917L43.9439 8.73259H54.9652L58.2857 4.71851H40.5527V4.78893ZM28.5423 7.46499L27.1294 6.61992L28.7543 6.33823L28.5423 7.46499Z" fill="#D62F2F"/>
<path d="M30.3087 35.7744H27.9773L26.635 30.1406L25.3633 35.4927L29.1783 39.9998L32.9228 35.4927L31.6511 30.1406L30.3087 35.7744Z" fill="#D62F2F"/>
<path d="M42.8839 13.2397L48.3946 16.6904L53.4107 10.634H44.9327L42.8839 13.2397Z" fill="#D62F2F"/>
<path d="M39.9167 16.8312L44.297 21.6903L47.2643 18.1692L41.7536 14.5776L39.9167 16.8312Z" fill="#D62F2F"/>
<path d="M37.4445 19.93L36.1022 25.9864L39.1401 27.9582L43.1671 23.1695L38.7162 18.3103L37.4445 19.93Z" fill="#D62F2F"/>
<path d="M28.6126 3.7324L29.1778 0.492958L26.917 2.1831L24.5856 0L23.8085 3.02817L21.1238 2.88733L23.102 5.35212L28.6126 3.7324Z" fill="#D62F2F"/>
<path d="M82.2119 30.0719V10.3328H75.7458L71.9088 23.3022H71.8377L67.9296 10.3328H61.4635V30.0007H66.0821L65.94 15.2497L66.0111 15.1785L70.2034 30.0007H73.543L77.7354 15.1785L77.8064 15.2497L77.6643 30.0007H82.2119V30.0719Z" fill="black"/>
<path d="M105.66 20.1663C105.66 14.3942 101.042 9.97607 95.2863 9.97607C91.9467 9.97607 88.9623 11.33 86.9727 14.0379C86.4754 14.6793 85.978 15.4631 85.6937 16.247C85.1963 17.6009 84.9121 18.9549 84.9121 20.4514C84.9121 26.1522 89.6729 30.4278 95.2863 30.4278C101.042 30.4278 105.66 26.0097 105.66 20.1663ZM100.616 20.2376C100.616 23.2305 98.4838 26.0097 95.3574 26.0097C92.0888 26.0097 89.9571 23.3018 89.9571 20.1663C89.9571 17.1021 92.0888 14.3942 95.3574 14.3942C98.5549 14.3942 100.616 17.1734 100.616 20.2376Z" fill="black"/>
<path d="M123.567 30.072L118.237 23.3735C121.364 22.8746 123.14 20.238 123.14 17.1738C123.14 15.1072 122.359 13.112 120.724 11.8293C119.019 10.4753 116.745 10.4041 114.685 10.4041H108.432V30.072H113.263V23.7298H113.335L117.882 30.072H123.567ZM118.308 17.4588C118.308 19.4541 116.887 20.3093 115.04 20.3093H113.263V14.8222H115.111C116.745 14.7509 118.308 15.4635 118.308 17.4588Z" fill="black"/>
<path d="M143.889 30.072L136.073 10.4041H132.094L124.207 30.072H129.607L130.673 27.2215H137.494L138.418 30.072H143.889ZM136.144 23.2309H132.023L134.012 16.5325H134.083L136.144 23.2309Z" fill="black"/>
<path d="M160.161 10.3328H154.974L150.995 24.1573H150.924L146.944 10.3328H141.757L148.294 30.0007H153.482L160.161 10.3328Z" fill="black"/>
<path d="M167.408 30.0719V10.3328H162.363V30.0007H167.408V30.0719Z" fill="black"/>
<path d="M190.857 20.1663C190.857 14.3942 186.239 9.97607 180.483 9.97607C177.143 9.97607 174.159 11.33 172.17 14.0379C171.672 14.6793 171.175 15.4631 170.89 16.247C170.393 17.6009 170.109 18.9549 170.109 20.4514C170.109 26.1522 174.87 30.4278 180.483 30.4278C186.239 30.4278 190.857 26.0097 190.857 20.1663ZM185.883 20.2376C185.883 23.2305 183.752 26.0097 180.625 26.0097C177.357 26.0097 175.225 23.3018 175.225 20.1663C175.225 17.1021 177.357 14.3942 180.625 14.3942C183.752 14.3942 185.883 17.1734 185.883 20.2376Z" fill="black"/>
</svg>
