<svg width="176" height="53" viewBox="0 0 176 53" fill="none" xmlns="http://www.w3.org/2000/svg">
<path d="M16.2033 17.584H8.75357L13.1613 22.9463L18.0037 19.891L16.2033 17.584Z" fill="#FFFFFF"/>
<path d="M18.997 21.0757L14.1546 24.2557L16.762 27.3733L20.6111 23.071L18.997 21.0757Z" fill="#FFFFFF"/>
<path d="M22.7839 25.8145L21.6665 24.3804L17.7553 28.6827L21.294 32.9227L23.9635 31.1768L22.7839 25.8145Z" fill="#FFFFFF"/>
<path d="M40.1045 12.4085L34.8897 19.9533L34.3931 16.0874L30.1095 12.4085L25.2671 13.8427L24.0255 15.3391L25.7638 17.5215L26.3846 16.3368L27.3158 16.3991L27.9366 17.2721L26.3225 19.9533L20.1144 12.4085H4.46997L7.38778 15.9627H17.1345L24.0876 24.6921L25.7017 31.9874L22.3493 34.1697L25.2051 37.5991L26.695 33.6709H29.0541C29.0541 33.6709 29.737 35.978 29.9853 36.9133C30.0474 37.1627 30.1095 37.2874 30.1095 37.2874L31.1028 33.6709H33.4619L35.0139 37.5991L37.8696 34.1697L34.5172 31.925L36.1313 24.6297L43.0844 15.9003H52.7691L55.6869 12.3462H40.1045V12.4085ZM29.5507 14.778L28.3091 14.0297L29.737 13.7803L29.5507 14.778Z" fill="#FFFFFF"/>
<path d="M31.1028 39.8437H29.0541L27.8746 34.8555L26.7571 39.5943L30.1095 43.5849L33.3998 39.5943L32.2823 34.8555L31.1028 39.8437Z" fill="#FFFFFF"/>
<path d="M42.1532 19.891L46.9955 22.9463L51.4033 17.584H43.9536L42.1532 19.891Z" fill="#FFFFFF"/>
<path d="M39.5458 23.071L43.3948 27.3733L46.0022 24.2557L41.1599 21.0757L39.5458 23.071Z" fill="#FFFFFF"/>
<path d="M37.373 25.8145L36.1934 31.1768L38.8629 32.9227L42.4015 28.6827L38.4904 24.3804L37.373 25.8145Z" fill="#FFFFFF"/>
<path d="M29.6128 11.4732L30.1095 8.60493L28.1229 10.1014L26.0742 8.16846L25.3913 10.8496L23.0322 10.7249L24.7705 12.9073L29.6128 11.4732Z" fill="#FFFFFF"/>
<path d="M76.2977 34.4812V17.2095H70.6483L67.2959 28.5577H67.2339L63.8194 17.2095H58.17V34.4189H62.2053L62.0811 21.5118L62.1432 21.4495L65.806 34.4189H68.7238L72.3866 21.4495L72.4487 21.5118L72.3245 34.4189H76.2977V34.4812Z" fill="#FFFFFF"/>
<path d="M96.7845 25.8139C96.7845 20.7633 92.7492 16.8975 87.7206 16.8975C84.8028 16.8975 82.1954 18.0822 80.4572 20.4516C80.0226 21.0128 79.588 21.6986 79.3397 22.3845C78.9051 23.5692 78.6568 24.7539 78.6568 26.0633C78.6568 31.0516 82.8162 34.7928 87.7206 34.7928C92.7492 34.7928 96.7845 30.9269 96.7845 25.8139ZM92.3767 25.8763C92.3767 28.4951 90.5143 30.9269 87.7827 30.9269C84.927 30.9269 83.0646 28.5575 83.0646 25.8139C83.0646 23.1328 84.927 20.7633 87.7827 20.7633C90.5764 20.7633 92.3767 23.1951 92.3767 25.8763Z" fill="#FFFFFF"/>
<path d="M112.429 34.4814L107.773 28.6202C110.504 28.1837 112.056 25.8767 112.056 23.1955C112.056 21.3873 111.374 19.6414 109.946 18.519C108.456 17.3343 106.469 17.272 104.669 17.272H99.2056V34.4814H103.427V28.932H103.489L107.462 34.4814H112.429ZM107.835 23.4449C107.835 25.1908 106.593 25.939 104.979 25.939H103.427V21.1379H105.041C106.469 21.0755 107.835 21.699 107.835 23.4449Z" fill="#FFFFFF"/>
<path d="M130.184 34.4814L123.355 17.272H119.879L112.988 34.4814H117.706L118.637 31.9873H124.597L125.404 34.4814H130.184ZM123.417 28.4955H119.817L121.555 22.6343H121.617L123.417 28.4955Z" fill="#FFFFFF"/>
<path d="M144.401 17.2095H139.869L136.392 29.3059H136.33L132.854 17.2095H128.322L134.033 34.4189H138.565L144.401 17.2095Z" fill="#FFFFFF"/>
<path d="M150.733 34.4812V17.2095H146.325V34.4189H150.733V34.4812Z" fill="#FFFFFF"/>
<path d="M171.22 25.8139C171.22 20.7633 167.184 16.8975 162.156 16.8975C159.238 16.8975 156.631 18.0822 154.892 20.4516C154.458 21.0128 154.023 21.6986 153.775 22.3845C153.34 23.5692 153.092 24.7539 153.092 26.0633C153.092 31.0516 157.252 34.7928 162.156 34.7928C167.184 34.7928 171.22 30.9269 171.22 25.8139ZM166.874 25.8763C166.874 28.4951 165.012 30.9269 162.28 30.9269C159.424 30.9269 157.562 28.5575 157.562 25.8139C157.562 23.1328 159.424 20.7633 162.28 20.7633C165.012 20.7633 166.874 23.1951 166.874 25.8763Z" fill="#FFFFFF"/>
</svg>
