<?xml version="1.0" encoding="UTF-8"?><svg id="Vrstva_2" xmlns="http://www.w3.org/2000/svg" viewBox="0 0 340.16 164.69"><defs><style>.cls-1{fill:#fff;}</style></defs><g id="pulkruhy"><g><g><path class="cls-1" d="m41.03,132.2h13.54c3.4,0,6.41.67,9.04,2.02,2.63,1.35,4.67,3.24,6.13,5.67,1.45,2.43,2.18,5.22,2.18,8.37s-.73,5.94-2.18,8.38c-1.45,2.43-3.5,4.32-6.13,5.67-2.63,1.35-5.64,2.02-9.04,2.02h-13.54v-32.12Zm13.26,28.13c2.6,0,4.89-.5,6.86-1.51,1.97-1.01,3.5-2.42,4.57-4.25,1.07-1.82,1.61-3.92,1.61-6.31s-.54-4.49-1.61-6.31c-1.07-1.82-2.59-3.23-4.57-4.24-1.97-1.01-4.26-1.51-6.86-1.51h-8.67v24.14h8.67Z"/><path class="cls-1" d="m110.72,162.56c-2.59-1.42-4.61-3.38-6.08-5.87-1.47-2.49-2.2-5.3-2.2-8.42s.73-5.93,2.2-8.42c1.47-2.49,3.5-4.45,6.1-5.87,2.6-1.42,5.51-2.13,8.72-2.13,2.51,0,4.8.42,6.88,1.26,2.08.84,3.86,2.09,5.32,3.74l-2.98,2.89c-2.42-2.54-5.43-3.81-9.04-3.81-2.39,0-4.54.54-6.47,1.61-1.93,1.07-3.43,2.55-4.52,4.43-1.09,1.88-1.63,3.99-1.63,6.31s.54,4.43,1.63,6.31c1.09,1.88,2.59,3.36,4.52,4.43,1.93,1.07,4.08,1.61,6.47,1.61,3.58,0,6.59-1.29,9.04-3.86l2.98,2.89c-1.47,1.65-3.25,2.91-5.35,3.76-2.1.86-4.4,1.29-6.91,1.29-3.21,0-6.11-.71-8.7-2.13Z"/><path class="cls-1" d="m164.8,156.3h-17.07l-3.53,8.03h-4.73l14.55-32.12h4.54l14.59,32.12h-4.82l-3.53-8.03Zm-1.61-3.67l-6.93-15.74-6.93,15.74h13.86Z"/><path class="cls-1" d="m207.16,135.19c2.39,1.99,3.58,4.73,3.58,8.21s-1.19,6.23-3.58,8.21c-2.39,1.99-5.66,2.98-9.82,2.98h-7.94v9.73h-4.59v-32.12h12.53c4.16,0,7.43,1,9.82,2.98Zm-3.3,13.56c1.53-1.24,2.29-3.02,2.29-5.35s-.76-4.11-2.29-5.35c-1.53-1.24-3.75-1.86-6.65-1.86h-7.8v14.41h7.8c2.91,0,5.12-.62,6.65-1.86Z"/><path class="cls-1" d="m224.37,132.2h4.59v32.12h-4.59v-32.12Z"/><path class="cls-1" d="m251.86,136.2h-11.01v-3.99h26.57v3.99h-11.01v28.13h-4.54v-28.13Z"/><path class="cls-1" d="m298.17,156.3h-17.07l-3.53,8.03h-4.73l14.55-32.12h4.54l14.59,32.12h-4.82l-3.53-8.03Zm-1.61-3.67l-6.93-15.74-6.93,15.74h13.86Z"/><path class="cls-1" d="m318.17,132.2h4.59v28.13h17.39v3.99h-21.98v-32.12Z"/><g><polygon class="cls-1" points="12.9 145.36 4.91 132.2 0 132.2 10.46 149.36 12.9 145.36"/><polygon class="cls-1" points="25.52 132.2 12.75 153.12 12.76 153.13 12.76 164.33 17.3 164.33 17.3 153.22 30.06 132.2 25.52 132.2"/></g></g><g><g><path class="cls-1" d="m233.86,57.28c-3.44,12.31-14.76,21.38-28.16,21.38h-18.03l-2.55,4.44h20.58c15.86,0,29.2-11.03,32.75-25.82h-4.59Z"/><path class="cls-1" d="m233.86,41.55h4.59c-3.55-14.79-16.89-25.82-32.75-25.82h-36.24l-38.81,67.36h5.12l36.25-62.92h33.68c13.4,0,24.71,9.06,28.16,21.38Z"/></g><g><path class="cls-1" d="m205.71,0h-45.26l-16.89,29.26L126.51,0h-41.47l37.72,65.34-19.37,33.49h41.48l27.25-47.19h33.59s.03,0,.04,0c1.23,0,2.22-.99,2.22-2.22s-.99-2.22-2.22-2.22c-.01,0-.03,0-.04,0h0s-36.16,0-36.16,0l-27.25,47.19h-31.22l16.8-29.05L92.73,4.44h31.23l19.61,33.67,19.44-33.67h42.7c24.8,0,44.97,20.17,44.97,44.97s-20.17,44.97-44.97,44.97h-40.11l15.5-27.02h24.6c9.9,0,17.95-8.05,17.95-17.95s-8.05-17.95-17.95-17.95h-27.08l-2.57,4.44h29.65c7.45,0,13.51,6.06,13.51,13.51s-6.06,13.51-13.51,13.51h-27.17l-20.6,35.9h47.77c27.25,0,49.41-22.17,49.41-49.41S232.95,0,205.71,0Z"/><polygon class="cls-1" points="112.3 15.73 134.41 54.04 136.97 49.59 117.42 15.73 112.3 15.73"/></g></g></g></g></svg>